<?xml version="1.0" standalone="no"?>
<!DOCTYPE svg PUBLIC "-//W3C//DTD SVG 20010904//EN"
 "http://www.w3.org/TR/2001/REC-SVG-20010904/DTD/svg10.dtd">
<svg version="1.0" xmlns="http://www.w3.org/2000/svg"
 width="512.000000pt" height="512.000000pt" viewBox="0 0 512.000000 512.000000"
 preserveAspectRatio="xMidYMid meet">
<metadata>
Created by potrace 1.11, written by Peter Selinger 2001-2013
</metadata>
<g transform="translate(0.000000,512.000000) scale(0.100000,-0.100000)"
fill="#000000" stroke="none">
<path d="M0 2560 l0 -2560 2560 0 2560 0 0 2560 0 2560 -2560 0 -2560 0 0
-2560z m3450 280 c0 -77 3 -140 8 -140 4 0 47 63 95 140 49 77 95 140 103 140
11 0 14 -29 14 -161 0 -147 -2 -163 -21 -190 l-21 -29 21 -34 c19 -31 21 -49
21 -215 0 -142 -3 -181 -13 -181 -7 0 -53 68 -101 150 -49 83 -92 153 -97 156
-5 3 -9 -62 -9 -150 l0 -156 -100 0 -100 0 0 405 0 405 100 0 100 0 0 -140z
m780 -2 c0 -100 3 -139 11 -131 6 6 47 68 92 138 45 71 88 130 95 133 9 3 12
-34 12 -163 0 -138 -3 -170 -17 -191 -15 -24 -15 -27 0 -54 14 -23 17 -58 17
-214 0 -109 -4 -186 -9 -186 -5 0 -49 67 -98 150 -48 82 -91 150 -95 150 -5 0
-8 -67 -8 -150 l0 -150 -105 0 -105 0 0 405 0 405 105 0 105 0 0 -142z m-3676
126 c14 -5 16 -28 16 -155 l0 -149 130 0 129 0 3 153 3 152 70 0 70 0 3 -386
2 -386 -37 -6 c-21 -4 -55 -4 -75 0 l-38 6 0 163 0 164 -130 0 -130 0 0 -164
0 -163 -40 -6 c-22 -3 -58 -3 -80 0 l-40 6 0 382 c0 210 3 385 7 388 8 9 116
9 137 1z m720 0 c14 -5 16 -39 16 -273 0 -257 1 -268 23 -311 18 -36 30 -48
65 -60 58 -20 117 0 147 50 19 33 20 54 23 312 l3 278 23 6 c12 3 47 4 77 2
l54 -3 3 -245 c4 -337 -10 -408 -98 -483 -48 -41 -103 -57 -193 -57 -131 0
-206 43 -255 147 -27 58 -27 58 -30 336 -2 153 -1 285 2 293 6 15 107 21 140
8z m925 -3 c7 -5 64 -170 125 -367 62 -198 116 -368 120 -380 6 -19 2 -22 -36
-27 -24 -3 -61 -3 -84 0 l-41 5 -20 77 -19 76 -129 0 -128 0 -21 -75 c-21 -71
-23 -75 -56 -81 -48 -11 -122 0 -116 16 2 7 57 179 121 382 64 202 122 371
128 375 16 11 139 10 156 -1z m385 -13 c8 -13 42 -88 76 -168 34 -80 66 -148
69 -153 4 -4 40 69 80 162 40 93 79 172 88 175 25 10 131 7 138 -4 3 -5 -46
-117 -109 -249 l-116 -238 0 -140 0 -140 -44 -6 c-23 -4 -59 -4 -80 0 l-36 6
0 137 0 137 -119 244 c-65 134 -117 247 -114 252 2 4 38 7 78 7 66 0 76 -2 89
-22z"/>
<path d="M2072 2646 c-23 -80 -42 -149 -42 -155 0 -7 31 -11 85 -11 47 0 85 3
85 8 0 11 -78 293 -82 298 -2 2 -23 -61 -46 -140z"/>
</g>
</svg>
