<?xml version="1.0" standalone="no"?>
<!DOCTYPE svg PUBLIC "-//W3C//DTD SVG 20010904//EN"
 "http://www.w3.org/TR/2001/REC-SVG-20010904/DTD/svg10.dtd">
<svg version="1.0" xmlns="http://www.w3.org/2000/svg"
 width="1891.000000pt" height="1891.000000pt" viewBox="0 0 1891.000000 1891.000000"
 preserveAspectRatio="xMidYMid meet">
<metadata>
Created by potrace 1.14, written by Peter Selinger 2001-2017
</metadata>
<g transform="translate(0.000000,1891.000000) scale(0.100000,-0.100000)"
fill="#000000" stroke="none">
<path d="M9139 18906 c-2 -2 -78 -7 -169 -10 -91 -4 -178 -9 -195 -11 -16 -2
-72 -7 -123 -10 -51 -4 -100 -8 -110 -10 -9 -1 -51 -6 -93 -9 -42 -4 -87 -9
-100 -11 -13 -2 -46 -6 -74 -10 -707 -88 -1353 -245 -2080 -505 -134 -48 -401
-157 -575 -235 -729 -326 -1421 -746 -2045 -1243 -93 -75 -175 -141 -181 -146
-6 -6 -35 -31 -64 -56 -400 -334 -897 -846 -1246 -1282 -921 -1149 -1563
-2494 -1868 -3913 -38 -175 -86 -431 -101 -540 -3 -22 -8 -51 -10 -65 -3 -14
-7 -47 -10 -75 -3 -27 -8 -61 -10 -75 -6 -36 -14 -98 -19 -150 -2 -25 -7 -65
-10 -90 -7 -49 -12 -110 -21 -240 -3 -47 -8 -98 -10 -115 -25 -167 -25 -966 0
-1290 2 -33 7 -98 10 -145 3 -47 8 -98 10 -115 3 -16 7 -57 10 -90 15 -153 41
-347 71 -530 35 -208 34 -205 44 -250 5 -22 11 -53 14 -70 15 -81 28 -144 65
-305 317 -1362 944 -2652 1825 -3750 85 -107 249 -304 266 -320 3 -3 41 -45
85 -95 223 -249 537 -559 800 -790 55 -48 114 -99 130 -114 163 -144 558 -443
825 -623 224 -151 693 -438 715 -438 2 0 28 -14 57 -31 72 -43 500 -257 618
-309 461 -204 863 -351 1310 -479 185 -53 529 -136 680 -165 14 -3 59 -12 101
-20 88 -17 357 -64 409 -70 19 -2 105 -14 190 -25 85 -11 184 -23 220 -26 36
-3 81 -8 100 -10 19 -2 71 -7 115 -10 44 -3 105 -8 135 -10 296 -23 1058 -23
1245 0 17 2 71 6 121 9 109 7 323 28 454 46 36 5 88 12 115 15 106 13 448 72
630 109 527 106 1346 366 1810 576 22 10 87 39 145 65 459 206 979 499 1424
802 320 219 723 533 956 747 25 22 72 65 105 95 136 123 434 422 611 612 58
62 282 323 334 389 19 24 47 58 61 75 121 142 390 515 548 759 620 958 1064
2022 1300 3111 43 200 96 488 116 630 3 22 10 69 15 105 16 109 49 409 56 515
3 55 8 108 10 119 23 124 22 1121 -1 1311 -2 17 -6 71 -10 120 -3 50 -7 101
-10 115 -2 14 -7 61 -10 105 -4 44 -8 82 -10 85 -1 3 -6 37 -9 75 -4 39 -8 80
-10 90 -2 11 -7 43 -10 70 -14 99 -17 120 -22 150 -24 153 -90 496 -120 625
-14 58 -34 143 -45 190 -12 47 -27 108 -35 135 -8 28 -30 106 -50 175 -65 229
-73 254 -128 415 -79 231 -90 260 -173 470 -361 911 -861 1757 -1490 2522
-101 123 -111 135 -228 267 -226 256 -626 655 -830 827 -22 19 -47 40 -55 48
-37 35 -307 256 -425 348 -785 607 -1686 1096 -2635 1432 -243 85 -682 217
-855 255 -33 8 -130 30 -215 49 -127 29 -372 77 -515 102 -66 11 -384 54 -440
60 -33 3 -71 8 -85 10 -14 2 -61 7 -105 10 -44 4 -89 8 -100 10 -11 1 -74 6
-140 10 -66 4 -136 9 -155 11 -45 5 -826 14 -831 10z"/>
</g>
</svg>
