<?xml version="1.0" standalone="no"?>
<!DOCTYPE svg PUBLIC "-//W3C//DTD SVG 20010904//EN"
 "http://www.w3.org/TR/2001/REC-SVG-20010904/DTD/svg10.dtd">
<svg version="1.0" xmlns="http://www.w3.org/2000/svg"
 width="512.000000pt" height="512.000000pt" viewBox="0 0 512.000000 512.000000"
 preserveAspectRatio="xMidYMid meet">
<metadata>
Created by potrace 1.11, written by Peter Selinger 2001-2013
</metadata>
<g transform="translate(0.000000,512.000000) scale(0.100000,-0.100000)"
fill="#000000" stroke="none">
<path d="M0 2560 l0 -2560 2560 0 2560 0 0 2560 0 2560 -2560 0 -2560 0 0
-2560z m2800 1750 c258 -32 508 -122 739 -265 337 -210 612 -561 737 -943 47
-144 61 -207 79 -358 19 -163 19 -255 -1 -423 -56 -484 -308 -922 -698 -1216
-75 -57 -79 -58 -92 -40 -19 26 -43 108 -50 170 l-5 50 79 67 c532 445 697
1219 396 1855 -108 227 -331 487 -529 617 -49 33 -94 64 -100 69 -14 13 86
-43 106 -60 8 -7 19 -13 23 -13 4 0 24 -12 44 -26 l37 -26 -30 26 c-94 82
-313 199 -465 250 -140 46 -275 68 -439 74 -167 5 -273 -6 -421 -42 l-91 -22
-36 31 -36 31 74 22 c155 45 253 57 464 57 228 0 318 -13 497 -71 132 -43 228
-85 352 -156 50 -29 92 -51 93 -50 2 1 15 -10 29 -23 15 -14 29 -23 32 -20 3
3 17 -2 31 -11 23 -13 22 -12 -3 10 -17 14 -33 23 -38 20 -4 -3 -8 -1 -8 5 0
28 -254 172 -396 226 -331 125 -752 139 -1074 36 l-85 -27 -53 27 -52 28 47
21 c62 27 299 88 388 99 101 12 356 13 455 1z m-1047 -169 c205 -72 317 -193
393 -421 l29 -85 3 -518 3 -517 386 2 385 3 5 331 c6 323 5 331 -16 379 -12
27 -29 58 -39 68 -26 30 -88 57 -127 57 -19 0 -35 5 -35 10 0 7 148 10 425 10
277 0 425 -3 425 -10 0 -5 -20 -10 -45 -10 -58 0 -102 -19 -140 -59 l-30 -32
0 -1047 0 -1047 24 -82 c42 -148 127 -259 239 -311 29 -13 51 -29 49 -35 -6
-19 -172 -20 -257 -2 -231 51 -383 205 -452 460 -21 76 -22 103 -25 593 l-4
512 -385 0 -384 0 0 -349 c0 -223 4 -360 11 -378 24 -64 93 -113 159 -113 29
0 40 -4 40 -15 0 -13 -54 -15 -425 -15 -371 0 -425 2 -425 15 0 12 13 15 58
15 45 0 65 5 95 25 71 49 66 -28 67 1107 0 996 0 1025 -20 1107 -38 156 -126
279 -237 331 -29 14 -53 31 -53 39 0 22 228 9 303 -18z m-223 -178 c19 -27 28
-43 19 -36 -34 27 -330 -253 -446 -423 -312 -458 -389 -1025 -207 -1536 59
-165 221 -446 281 -485 12 -8 21 -19 18 -23 -3 -4 2 -13 10 -20 8 -7 15 -9 15
-5 0 5 10 0 21 -11 12 -10 -7 17 -42 61 -149 186 -264 421 -328 670 -6 22 -17
93 -26 158 -41 321 8 645 141 926 90 189 171 307 313 455 84 86 239 216 259
216 10 0 25 -33 37 -80 5 -18 4 -21 -4 -11 -8 12 -16 10 -47 -14 -314 -239
-528 -581 -606 -967 -33 -162 -33 -454 1 -608 29 -137 72 -264 125 -375 47
-97 151 -260 181 -285 10 -8 2 10 -18 40 -38 56 -74 119 -64 110 3 -3 23 -31
45 -63 103 -153 278 -323 437 -426 160 -103 388 -194 570 -226 206 -37 491
-26 669 25 l65 18 41 -53 c23 -30 62 -70 87 -91 24 -20 41 -40 36 -44 -15 -15
-208 -69 -300 -85 -667 -113 -1318 136 -1728 660 -197 252 -328 573 -366 897
-19 163 -7 417 25 563 91 403 270 714 565 979 70 63 167 136 182 136 3 0 21
-21 39 -47z m-379 -2218 l10 -20 -16 20 c-9 11 -21 29 -26 40 l-10 20 16 -20
c9 -11 21 -29 26 -40z"/>
<path d="M1275 1530 c10 -11 20 -20 23 -20 3 0 -3 9 -13 20 -10 11 -20 20 -23
20 -3 0 3 -9 13 -20z"/>
</g>
</svg>
