<?xml version="1.0" standalone="no"?>
<!DOCTYPE svg PUBLIC "-//W3C//DTD SVG 20010904//EN"
 "http://www.w3.org/TR/2001/REC-SVG-20010904/DTD/svg10.dtd">
<svg version="1.0" xmlns="http://www.w3.org/2000/svg"
 width="513.000000pt" height="513.000000pt" viewBox="0 0 513.000000 513.000000"
 preserveAspectRatio="xMidYMid meet">
<metadata>
Created by potrace 1.11, written by Peter Selinger 2001-2013
</metadata>
<g transform="translate(0.000000,513.000000) scale(0.100000,-0.100000)"
fill="#000000" stroke="none">
<path d="M0 2565 l0 -2565 2565 0 2565 0 0 2565 0 2565 -2565 0 -2565 0 0
-2565z m2360 1910 c0 -31 -5 -31 -55 0 l-40 25 48 0 c44 0 47 -2 47 -25z
m-1157 -800 l87 -50 0 -1157 0 -1157 -135 77 -135 77 0 1158 0 1157 48 -27
c26 -16 87 -50 135 -78z m1055 -609 l102 -58 0 -1043 c0 -574 3 -1045 8 -1047
4 -2 373 -2 820 0 l813 3 -3 307 -3 307 -27 46 c-31 53 -77 96 -125 116 -26
10 -127 13 -483 13 l-450 0 0 141 0 141 458 -5 c493 -5 505 -7 619 -63 80 -39
174 -131 217 -213 63 -121 66 -145 66 -635 l0 -439 -917 6 -916 6 -171 98
-171 98 -3 1159 -2 1158 32 -19 c18 -11 79 -45 136 -77z m-1168 -2381 l55 -35
-62 0 -63 0 0 35 c0 19 3 35 8 35 4 0 32 -16 62 -35z"/>
</g>
</svg>
