<?xml version="1.0" standalone="no"?>
<!DOCTYPE svg PUBLIC "-//W3C//DTD SVG 20010904//EN"
 "http://www.w3.org/TR/2001/REC-SVG-20010904/DTD/svg10.dtd">
<svg version="1.0" xmlns="http://www.w3.org/2000/svg"
 width="924.000000pt" height="924.000000pt" viewBox="0 0 924.000000 924.000000"
 preserveAspectRatio="xMidYMid meet">
<metadata>
Created by potrace 1.11, written by Peter Selinger 2001-2013
</metadata>
<g transform="translate(0.000000,924.000000) scale(0.100000,-0.100000)"
fill="#000000" stroke="none">
<path d="M0 4620 l0 -4620 2718 0 2717 0 139 145 c76 80 143 142 149 138 6 -3
7 -1 3 5 -4 7 44 64 121 144 71 73 174 180 228 238 127 133 520 544 690 720
126 131 476 495 700 730 197 205 357 373 476 495 63 66 234 244 379 395 375
392 672 691 679 685 3 -4 0 -9 -6 -13 -8 -5 -11 -60 -11 -174 0 -92 -3 -171
-6 -177 -4 -5 -2 -12 4 -16 6 -4 8 -11 4 -16 -3 -5 -10 -7 -15 -4 -5 3 -6 0
-4 -7 5 -13 -112 -129 -625 -623 -74 -71 -191 -184 -260 -250 -69 -67 -181
-175 -250 -240 -69 -66 -181 -174 -250 -240 -184 -177 -722 -694 -880 -845
-90 -85 -265 -253 -375 -359 -635 -612 -652 -628 -669 -623 -6 2 -8 0 -3 -4 4
-4 -14 -29 -40 -56 l-47 -48 1837 0 1837 0 0 4620 0 4620 -1667 0 -1668 0 -97
-96 c-60 -59 -102 -93 -109 -88 -7 4 -9 3 -6 -3 4 -6 -40 -54 -96 -108 -56
-54 -152 -147 -214 -207 -101 -98 -134 -119 -117 -74 8 21 0 20 -21 -1 -9 -9
-29 -17 -43 -18 -19 -1 -27 -7 -26 -19 2 -13 -1 -14 -13 -5 -12 11 -12 14 4
23 10 6 25 11 33 11 23 1 40 15 40 33 -1 15 -2 15 -13 2 -7 -8 -19 -16 -27
-18 -8 -2 29 41 81 95 53 54 129 133 170 175 40 42 77 74 83 71 6 -3 8 -2 3 2
-8 10 62 87 73 80 4 -3 7 3 6 13 0 10 6 16 16 16 10 -1 15 3 12 8 -4 5 15 32
42 59 l48 49 -2867 0 -2867 0 0 -4620z m5254 4012 c3 -5 -1 -9 -9 -9 -8 0 -12
4 -9 9 3 4 7 8 9 8 2 0 6 -4 9 -8z m-44 -12 c0 -5 -5 -10 -11 -10 -5 0 -7 5
-4 10 3 6 8 10 11 10 2 0 4 -4 4 -10z m10 -34 c0 -2 -8 -10 -17 -17 -16 -13
-17 -12 -4 4 13 16 21 21 21 13z m-40 -36 c0 -5 -5 -10 -11 -10 -5 0 -7 5 -4
10 3 6 8 10 11 10 2 0 4 -4 4 -10z m-140 -44 c0 -2 -8 -10 -17 -17 -16 -13
-17 -12 -4 4 13 16 21 21 21 13z m100 0 c0 -2 -6 -9 -14 -15 -11 -9 -16 -9
-22 0 -4 8 -3 9 4 5 7 -4 12 -2 12 3 0 6 5 11 10 11 6 0 10 -2 10 -4z m-49
-23 c13 -16 12 -17 -3 -4 -10 7 -18 15 -18 17 0 8 8 3 21 -13z m-28 -53 c-15
-16 -30 -26 -33 -23 -3 2 6 14 20 25 14 11 24 25 22 30 -1 5 2 6 8 3 7 -5 1
-17 -17 -35z m-51 -52 c-7 -7 -12 -8 -12 -2 0 14 12 26 19 19 2 -3 -1 -11 -7
-17z m-22 -11 c0 -1 -26 -29 -59 -61 -41 -41 -61 -54 -66 -45 -5 7 -4 10 2 6
5 -3 34 18 63 48 51 51 60 59 60 52z m-210 -201 c0 -2 -8 -10 -17 -17 -16 -13
-17 -12 -4 4 13 16 21 21 21 13z m-940 -909 c0 -2 -10 -12 -22 -23 l-23 -19
19 23 c18 21 26 27 26 19z m1655 -107 c-33 -32 -62 -57 -64 -54 -6 6 112 123
118 118 3 -2 -22 -31 -54 -64z m-1735 26 c0 -2 -8 -10 -17 -17 -16 -13 -17
-12 -4 4 13 16 21 21 21 13z m1545 -214 c-66 -64 -118 -120 -117 -124 3 -12
-27 -17 -34 -5 -4 7 -4 9 1 5 4 -4 18 6 30 22 12 16 25 27 28 23 4 -3 7 2 7
12 0 10 2 16 5 13 3 -3 47 37 97 88 51 51 94 91 97 88 2 -2 -49 -57 -114 -122z
m-175 -182 c0 -5 -2 -10 -4 -10 -2 0 -12 -3 -22 -7 -16 -6 -17 -5 -4 10 17 19
30 22 30 7z m-43 -45 c-7 -7 -16 -10 -22 -7 -5 3 -4 7 3 10 7 2 10 8 7 13 -4
5 1 6 9 3 12 -5 13 -9 3 -19z m-27 -29 c0 -2 -8 -10 -17 -17 -16 -13 -17 -12
-4 4 13 16 21 21 21 13z m-40 -9 c0 -2 -15 -16 -32 -33 l-33 -29 29 33 c28 30
36 37 36 29z m0 -30 c0 -2 -12 -14 -27 -28 l-28 -24 24 28 c23 25 31 32 31 24z
m116 -137 c129 0 234 -2 234 -5 0 -4 -7 -19 -15 -35 -8 -16 -35 -84 -59 -152
-25 -68 -70 -190 -101 -273 -31 -82 -79 -210 -106 -282 -27 -73 -71 -193 -98
-265 -28 -73 -68 -182 -91 -243 -22 -60 -54 -144 -70 -185 -16 -41 -65 -172
-109 -290 -150 -405 -230 -598 -351 -845 -292 -596 -678 -882 -1305 -966 -65
-9 -470 -13 -1469 -16 -1335 -4 -1378 -4 -1374 14 10 37 288 473 461 723 198
285 315 430 490 608 l101 102 648 0 c542 0 653 2 676 14 45 24 137 126 195
216 51 80 83 151 156 345 16 44 57 152 91 240 34 88 81 212 105 275 157 417
224 595 304 813 27 72 56 149 65 170 l16 37 653 1 c358 1 666 4 682 8 17 4 32
3 33 -1 2 -4 109 -8 238 -8z m3784 -3 c20 -2 6 -15 -79 -77 -57 -41 -131 -96
-164 -121 -129 -95 -407 -299 -527 -385 -69 -50 -192 -139 -275 -199 -82 -60
-266 -191 -407 -293 -142 -101 -258 -188 -258 -193 0 -4 13 -23 28 -41 15 -18
37 -45 48 -59 90 -122 239 -309 245 -309 4 0 17 12 29 27 20 26 273 291 580
608 79 83 197 204 260 270 278 290 444 454 453 448 6 -3 7 -1 3 5 -8 13 6 22
44 27 22 3 37 -3 55 -21 22 -22 25 -34 26 -102 2 -103 -1 -126 -15 -134 -18
-12 3 -9 27 3 21 11 21 11 -2 -14 -13 -15 -28 -24 -34 -20 -6 3 -7 1 -3 -5 8
-13 -153 -174 -709 -707 -427 -410 -529 -508 -557 -534 l-27 -26 162 -210 c89
-115 184 -237 210 -270 52 -67 60 -91 25 -81 -13 3 -349 6 -748 6 l-726 0
-239 275 c-132 151 -242 275 -245 275 -3 0 -53 -123 -111 -273 l-106 -272
-662 -3 c-363 -1 -661 1 -661 5 0 4 20 57 44 118 42 106 63 161 196 510 34 88
81 212 105 275 24 63 78 205 120 315 42 110 89 234 105 275 16 41 85 221 154
400 68 179 140 366 159 415 l35 90 666 3 665 2 -25 -67 c-14 -38 -43 -112 -65
-165 -43 -105 -43 -108 -30 -108 8 0 402 260 473 313 29 22 33 22 501 27 420
4 1191 3 1257 -3z m-1098 -2585 l167 -7 -40 -90 c-23 -49 -54 -121 -69 -160
-16 -38 -59 -137 -95 -220 -36 -82 -84 -195 -107 -250 -22 -55 -45 -105 -50
-112 -7 -8 -404 -12 -1611 -12 -881 -1 -1659 2 -1728 5 l-127 7 63 121 c100
196 212 410 298 575 l80 154 1016 -6 c559 -3 1026 -2 1039 1 29 9 937 4 1164
-6z m-2094 -1100 c7 7 12 8 12 2 0 -17 -178 -187 -189 -180 -7 5 -9 1 -5 -8 6
-16 -10 -23 -19 -8 -2 4 -3 2 -1 -5 4 -15 -30 -45 -41 -36 -4 5 -5 3 -2 -3 8
-14 -78 -98 -91 -90 -5 3 -9 -2 -8 -11 0 -9 -4 -18 -10 -20 -7 -2 -10 6 -9 21
4 31 -27 41 -50 16 -14 -15 -14 -22 -5 -40 9 -17 9 -21 0 -15 -6 4 -17 -1 -24
-10 -11 -15 -14 -15 -24 -2 -11 12 4 32 88 120 56 58 107 105 113 103 7 -1 9
-1 5 1 -14 8 -8 25 6 20 8 -3 13 1 12 11 0 9 5 16 12 15 6 -2 12 2 12 7 0 6
21 33 46 60 35 38 50 47 63 41 19 -10 58 -8 68 4 5 4 2 5 -6 0 -10 -5 -12 -4
-7 3 5 8 13 9 25 2 12 -6 22 -5 29 2z m-4607 -64 c122 0 150 -2 147 -13 -2 -8
-97 -112 -212 -232 -580 -603 -708 -732 -722 -726 -12 4 -12 7 2 18 14 9 14
14 4 20 -9 6 -11 4 -5 -5 5 -9 4 -11 -3 -6 -9 5 -7 14 5 32 12 19 14 39 10 92
-4 37 -3 90 2 119 6 41 5 50 -6 46 -9 -4 -11 0 -7 11 3 9 11 16 18 16 6 0 3 7
-7 14 -31 23 -40 14 358 396 207 198 244 232 256 225 6 -4 78 -7 160 -7z
m4234 -289 c0 -28 -56 -92 -67 -76 -4 7 -11 7 -22 -2 -11 -9 -16 -10 -16 -2 0
11 47 36 62 33 10 -2 20 36 13 48 -8 14 4 32 18 27 7 -2 12 -15 12 -28z m-105
-47 c0 -13 -29 -48 -30 -35 0 6 5 15 10 18 6 4 8 11 5 16 -4 5 -1 9 4 9 6 0
11 -4 11 -8z m-67 -55 c-15 -19 -30 -32 -32 -30 -5 3 49 63 57 63 2 0 -9 -15
-25 -33z m52 -37 c-27 -27 -51 -47 -54 -45 -2 3 -12 -2 -22 -11 -16 -14 -18
-14 -24 6 -7 21 -32 22 -27 1 1 -6 -4 -10 -10 -9 -7 2 -12 -3 -10 -10 1 -8 -2
-11 -9 -7 -7 5 1 19 22 41 22 23 35 30 40 22 5 -7 18 0 39 23 17 19 30 30 29
24 -3 -20 1 -35 11 -35 5 0 7 6 4 14 -3 8 -1 17 5 21 7 4 8 -1 4 -12 -5 -15
-2 -14 18 5 45 42 33 22 -16 -28z m-165 -84 c0 -2 -7 -9 -15 -16 -13 -11 -14
-10 -9 4 5 14 24 23 24 12z m80 0 c0 -2 -7 -7 -16 -10 -8 -3 -12 -2 -9 4 6 10
25 14 25 6z m-30 -30 c0 -2 -7 -7 -16 -10 -8 -3 -12 -2 -9 4 6 10 25 14 25 6z
m-55 -46 c-10 -11 -22 -20 -28 -20 -5 0 1 9 14 20 31 25 37 25 14 0z m-67 -7
c-10 -2 -18 -9 -18 -15 0 -6 -3 -9 -6 -5 -10 10 6 27 24 26 15 -1 15 -2 0 -6z
m-77 -66 c-6 -8 -7 -18 -3 -22 4 -5 1 -5 -6 -1 -10 6 -10 11 -1 22 6 8 14 14
16 14 3 0 0 -6 -6 -13z m59 -11 c0 -2 -8 -10 -17 -17 -16 -13 -17 -12 -4 4 13
16 21 21 21 13z m-72 -70 c-7 -6 -17 -17 -23 -24 -8 -11 -11 -9 -11 7 0 11 4
17 8 15 4 -3 8 -1 8 4 0 5 7 9 15 9 12 0 13 -3 3 -11z m-4587 -259 c-10 -9
-11 -8 -5 6 3 10 9 15 12 12 3 -3 0 -11 -7 -18z m3839 -451 c0 -2 -8 -10 -17
-17 -16 -13 -17 -12 -4 4 13 16 21 21 21 13z"/>
<path d="M5177 6343 c-15 -35 -117 -313 -169 -458 -12 -33 -24 -64 -28 -70
-12 -17 -103 -295 -98 -300 5 -5 31 59 196 485 23 58 64 164 91 235 28 72 51
133 51 138 0 4 -6 7 -13 7 -8 0 -21 -17 -30 -37z"/>
<path d="M4905 6310 c45 -12 165 -12 165 0 0 6 -38 10 -97 9 -67 -1 -88 -4
-68 -9z"/>
<path d="M3622 6168 c-123 -321 -228 -596 -278 -728 -23 -63 -70 -187 -104
-275 -34 -88 -79 -207 -100 -265 -82 -224 -99 -261 -163 -359 -83 -126 -212
-257 -291 -296 -51 -25 -73 -29 -194 -35 l-137 -7 115 -3 c63 -1 133 -2 155 0
102 6 259 137 378 316 68 103 119 223 274 649 65 180 106 292 223 610 95 258
172 485 168 496 -2 5 -22 -42 -46 -103z"/>
<path d="M3651 3596 c-19 -22 -167 -111 -243 -145 -76 -34 -213 -77 -317 -98
-52 -11 -164 -18 -358 -22 -155 -3 -285 -9 -289 -13 -15 -16 543 -9 654 8 210
31 385 109 559 251 8 6 13 17 11 23 -2 8 -8 7 -17 -4z"/>
<path d="M3629 3275 c-60 -33 -251 -104 -329 -124 -129 -32 -296 -50 -563 -62
-133 -5 -243 -12 -246 -15 -2 -2 99 -4 226 -4 327 0 504 20 673 76 85 29 254
110 271 131 15 17 1 16 -32 -2z"/>
<path d="M623 3224 c-16 -24 -18 -34 -9 -34 12 0 41 59 34 65 -2 2 -13 -13
-25 -31z"/>
<path d="M475 3081 c-4 -7 16 -11 61 -11 80 0 80 5 2 14 -36 5 -58 3 -63 -3z"/>
<path d="M6597 6297 c-16 -39 -49 -126 -73 -192 -25 -66 -54 -139 -64 -162
-24 -51 -26 -74 -6 -53 12 14 27 50 126 300 20 52 44 112 54 134 19 46 19 46
4 46 -7 0 -26 -33 -41 -73z"/>
<path d="M8550 6360 c-9 -6 -10 -10 -3 -10 6 0 15 5 18 10 8 12 4 12 -15 0z"/>
<path d="M6423 6333 c20 -2 54 -2 75 0 20 2 3 4 -38 4 -41 0 -58 -2 -37 -4z"/>
<path d="M7175 6292 c-77 -52 -280 -191 -390 -267 -38 -27 -97 -67 -130 -89
-33 -22 -78 -54 -101 -70 -23 -17 -69 -51 -103 -75 -34 -24 -59 -46 -57 -48 6
-7 55 21 152 85 49 33 197 130 329 217 132 87 278 186 324 219 l85 61 120 6
121 5 -140 2 -140 2 -70 -48z"/>
<path d="M6391 6194 c0 -11 3 -14 6 -6 3 7 2 16 -1 19 -3 4 -6 -2 -5 -13z"/>
<path d="M7409 5752 c-195 -137 -554 -397 -583 -423 -6 -6 -6 -13 1 -20 13
-13 206 121 498 345 162 124 212 168 188 165 -4 0 -51 -31 -104 -67z"/>
<path d="M7438 5573 c-36 -27 -139 -99 -227 -162 -89 -63 -164 -117 -166 -121
-2 -3 0 -12 5 -20 7 -11 13 -10 36 5 62 40 420 318 427 331 14 25 -7 15 -75
-33z"/>
<path d="M4906 4499 c-10 -30 -22 -59 -27 -64 -14 -19 -51 -126 -45 -133 4 -3
10 -1 15 4 14 14 82 216 79 233 -2 8 -12 -10 -22 -40z"/>
<path d="M6746 4380 c14 -14 679 -14 702 -1 11 7 -101 10 -347 11 -247 0 -362
-3 -355 -10z"/>
<path d="M4775 4230 c-4 -6 19 -10 66 -10 86 0 87 5 2 14 -39 4 -64 3 -68 -4z"/>
<path d="M6668 4228 c16 -16 434 -23 672 -12 250 12 119 22 -319 23 -292 1
-363 -2 -353 -11z"/>
<path d="M6282 3733 c-6 -10 -13 -33 -17 -50 -6 -32 -8 -33 -59 -33 l-53 0
-23 -87 c-13 -49 -33 -119 -45 -158 -13 -38 -28 -91 -35 -117 l-13 -48 -48 0
c-27 0 -49 -4 -49 -10 0 -6 27 -10 60 -10 l59 0 14 48 c8 26 34 115 58 199
l44 152 54 3 53 3 18 57 c10 31 15 60 12 63 -10 10 -21 5 -30 -12z"/>
<path d="M6727 3723 c-2 -4 -8 -23 -12 -40 -7 -36 -10 -37 -71 -34 l-41 3 -21
-59 c-11 -32 -30 -94 -42 -138 -11 -44 -30 -110 -41 -147 l-20 -68 -54 0 c-42
0 -55 -3 -55 -15 0 -12 14 -15 65 -15 l64 0 21 68 c11 37 37 130 58 207 37
138 38 140 67 143 65 6 72 10 83 54 10 40 10 59 -1 41z"/>
<path d="M5950 3640 c0 -5 11 -10 25 -10 14 0 25 5 25 10 0 6 -11 10 -25 10
-14 0 -25 -4 -25 -10z"/>
<path d="M6380 3634 c0 -11 8 -14 27 -12 39 4 42 28 4 28 -21 0 -31 -5 -31
-16z"/>
<path d="M5781 3528 c0 -15 -5 -30 -11 -33 -5 -3 -10 -18 -9 -33 1 -26 1 -26
15 7 8 18 13 45 11 60 l-4 26 -2 -27z"/>
<path d="M5555 2769 c-4 -6 -5 -12 -2 -15 2 -3 7 2 10 11 7 17 1 20 -8 4z"/>
<path d="M5550 2726 c0 -2 7 -9 15 -16 13 -11 14 -10 9 4 -5 14 -24 23 -24 12z"/>
<path d="M5465 2650 c3 -5 11 -10 16 -10 6 0 7 5 4 10 -3 6 -11 10 -16 10 -6
0 -7 -4 -4 -10z"/>
<path d="M5407 2615 c-3 -7 2 -24 13 -37 18 -23 19 -23 37 -4 13 15 13 16 2 8
-14 -10 -20 -9 -34 5 -11 11 -14 18 -6 21 13 4 15 22 2 22 -5 0 -11 -7 -14
-15z"/>
<path d="M5455 2620 c3 -5 8 -10 11 -10 2 0 4 5 4 10 0 6 -5 10 -11 10 -5 0
-7 -4 -4 -10z"/>
<path d="M5430 2600 c0 -5 5 -10 10 -10 6 0 10 5 10 10 0 6 -4 10 -10 10 -5 0
-10 -4 -10 -10z"/>
<path d="M5384 2576 c4 -16 2 -26 -4 -26 -6 0 -8 -5 -4 -11 5 -8 9 -8 14 1 4
7 13 10 19 6 7 -5 9 -1 5 8 -3 9 -10 16 -16 16 -5 0 -7 4 -3 9 3 5 0 13 -6 17
-9 5 -10 -1 -5 -20z"/>
<path d="M5351 2557 c-13 -21 -12 -21 5 -5 10 10 16 20 13 22 -3 3 -11 -5 -18
-17z"/>
<path d="M5273 2475 c-9 -24 1 -27 15 -5 8 13 8 20 2 20 -6 0 -13 -7 -17 -15z"/>
<path d="M349 1863 c-13 -16 -12 -17 4 -4 9 7 17 15 17 17 0 8 -8 3 -21 -13z"/>
<path d="M5330 2500 c0 -5 5 -10 10 -10 6 0 10 5 10 10 0 6 -4 10 -10 10 -5 0
-10 -4 -10 -10z"/>
<path d="M5190 2360 c0 -18 -37 -43 -50 -35 -6 3 -7 -1 -4 -9 4 -12 11 -13 24
-6 9 5 20 7 22 4 3 -2 11 2 17 10 9 11 10 20 2 33 -8 14 -10 15 -11 3z"/>
<path d="M5661 9064 c0 -11 3 -14 6 -6 3 7 2 16 -1 19 -3 4 -6 -2 -5 -13z"/>
<path d="M5497 8945 c-4 -8 -3 -16 1 -19 4 -3 9 4 9 15 2 23 -3 25 -10 4z"/>
<path d="M5394 8869 c-13 -22 13 -29 36 -9 13 11 19 20 15 20 -5 0 -17 -8 -28
-17 -19 -17 -20 -17 -14 0 7 19 2 23 -9 6z"/>
<path d="M5402 8820 c-39 -28 -61 -28 -27 0 31 25 5 21 -28 -4 -33 -25 -58
-82 -33 -73 6 2 11 13 11 24 0 32 15 40 31 19 8 -11 14 -25 14 -30 -1 -6 -7 0
-14 13 -8 15 -16 20 -20 12 -4 -6 -2 -11 4 -11 6 0 8 -4 5 -10 -3 -5 -1 -10 5
-10 6 0 1 -13 -12 -29 -13 -15 -25 -27 -27 -25 -2 2 4 13 14 24 10 11 16 22
13 25 -8 8 -63 -61 -65 -81 -1 -17 1 -16 18 5 10 13 19 19 19 15 0 -5 21 13
45 40 25 27 45 54 45 60 0 6 -4 4 -10 -4 -5 -8 -12 -11 -15 -8 -13 13 8 30 30
24 25 -6 42 9 42 37 0 9 -1 17 -2 17 -1 0 -21 -14 -43 -30z m32 -5 c-7 -16
-24 -21 -24 -6 0 8 7 13 27 20 1 1 0 -6 -3 -14z"/>
<path d="M5263 8734 c-12 -15 -19 -33 -16 -40 6 -17 23 -9 19 9 -1 7 -1 9 1 5
9 -15 25 -8 19 8 -3 8 -2 12 4 9 6 -3 10 -1 10 4 0 6 -5 11 -11 11 -5 0 -7 5
-4 10 12 19 -2 10 -22 -16z"/>
<path d="M5619 103 c-13 -16 -12 -17 4 -4 9 7 17 15 17 17 0 8 -8 3 -21 -13z"/>
<path d="M5500 35 c7 -8 17 -15 22 -15 5 0 3 7 -6 15 -8 8 -18 15 -22 15 -3 0
-1 -7 6 -15z"/>
<path d="M5478 23 c6 -2 9 -10 6 -15 -4 -7 -2 -8 5 -4 13 9 5 26 -12 25 -9 0
-8 -2 1 -6z"/>
</g>
</svg>
