<?xml version="1.0" standalone="no"?>
<!DOCTYPE svg PUBLIC "-//W3C//DTD SVG 20010904//EN"
 "http://www.w3.org/TR/2001/REC-SVG-20010904/DTD/svg10.dtd">
<svg version="1.0" xmlns="http://www.w3.org/2000/svg"
 width="512.000000pt" height="512.000000pt" viewBox="0 0 512.000000 512.000000"
 preserveAspectRatio="xMidYMid meet">
<metadata>
Created by potrace 1.11, written by Peter Selinger 2001-2013
</metadata>
<g transform="translate(0.000000,512.000000) scale(0.100000,-0.100000)"
fill="#000000" stroke="none">
<path d="M2607 4348 c-9 -7 -21 -25 -26 -40 l-11 -28 -355 0 -356 0 -14 -33
-14 -33 -363 -103 c-200 -57 -373 -109 -386 -117 -12 -8 -22 -23 -22 -34 0
-11 34 -140 76 -286 41 -146 73 -268 70 -271 -2 -3 -20 6 -38 20 -111 83 -293
119 -374 74 -12 -7 -57 -41 -99 -75 -100 -83 -120 -124 -119 -242 0 -79 18
-151 58 -241 6 -13 -1 -18 -31 -22 -48 -8 -124 -55 -149 -93 -11 -16 -37 -66
-58 -112 -35 -76 -38 -89 -34 -146 6 -73 39 -146 98 -216 22 -26 40 -52 40
-58 0 -5 -23 -17 -52 -27 -77 -25 -139 -59 -173 -95 -28 -30 -30 -36 -28 -105
2 -71 66 -763 81 -875 7 -52 9 -56 47 -75 57 -28 224 -33 337 -10 137 27 215
73 278 162 16 22 83 27 965 66 396 17 1974 16 2200 -1 93 -7 171 -15 172 -16
2 -1 17 -68 33 -147 35 -167 44 -180 137 -200 114 -24 244 31 293 124 l24 45
-28 529 c-15 290 -32 541 -38 556 -9 23 -37 50 -87 84 -2 1 15 27 39 57 55 72
89 157 90 222 0 41 -10 70 -49 152 -56 114 -95 151 -182 173 -39 10 -48 16
-43 28 22 53 55 169 60 215 7 56 -14 148 -42 192 -17 25 -146 134 -184 154
-35 19 -154 18 -220 -3 -82 -25 -172 -83 -266 -170 -46 -44 -84 -76 -84 -74 0
3 56 157 125 341 69 185 125 342 125 350 0 7 -8 20 -18 29 -16 15 -753 295
-818 311 -16 4 -30 0 -44 -14 l-21 -21 -244 55 c-134 31 -248 56 -253 56 -4 0
-16 -6 -25 -12z"/>
<path d="M1896 1161 c-45 -30 -64 -69 -79 -161 -16 -99 -8 -140 29 -169 37
-29 124 -29 170 -1 39 25 74 92 74 143 l0 37 -85 0 -85 0 0 -40 0 -40 45 0
c43 0 45 -1 35 -20 -19 -36 -100 -39 -114 -5 -11 29 16 167 35 186 31 31 99
23 99 -12 0 -15 7 -19 39 -19 22 0 42 3 44 8 10 16 -6 63 -30 87 -22 21 -35
25 -87 25 -43 0 -69 -6 -90 -19z"/>
<path d="M2200 1163 c0 -9 -15 -44 -34 -77 -25 -44 -39 -89 -51 -154 -8 -51
-18 -99 -21 -107 -5 -12 3 -15 39 -15 l46 0 3 48 3 47 50 0 50 0 -3 -35 c-2
-19 -9 -41 -14 -47 -8 -10 1 -13 41 -13 29 0 50 4 47 9 -3 4 2 52 10 106 15
91 15 104 -1 160 -9 33 -13 68 -9 78 5 15 -2 17 -75 17 -69 0 -81 -3 -81 -17z
m100 -160 c0 -21 -5 -23 -50 -23 -64 0 -64 6 -2 105 l26 40 13 -50 c7 -27 13
-60 13 -72z"/>
<path d="M2444 1172 c5 -8 -38 -306 -50 -344 -5 -15 1 -18 40 -18 l46 0 1 48
c0 26 4 56 8 66 6 16 10 11 19 -26 7 -26 12 -56 12 -67 0 -18 6 -21 40 -21 23
0 40 5 40 11 0 14 61 122 66 117 1 -2 -3 -32 -10 -66 l-13 -62 44 0 c40 0 43
2 43 28 0 37 46 318 55 331 4 7 -10 11 -39 11 -33 0 -46 -4 -46 -14 0 -15
-112 -216 -121 -216 -9 0 -51 190 -46 210 5 18 0 20 -45 20 -27 0 -47 -4 -44
-8z"/>
<path d="M2798 1013 c-14 -93 -29 -176 -33 -185 -7 -17 3 -18 129 -18 l136 0
0 38 0 37 -86 -4 -85 -3 3 38 3 39 60 0 c66 0 75 6 75 52 l0 31 -60 -5 c-65
-6 -69 -2 -53 55 6 23 9 24 94 20 81 -3 89 -1 89 15 0 10 5 27 10 38 10 18 6
19 -123 19 l-133 0 -26 -167z"/>
<path d="M3157 1159 c-59 -44 -74 -118 -33 -166 20 -22 34 -29 81 -33 69 -6
90 -27 61 -59 -26 -29 -96 -30 -103 -1 -4 16 -14 20 -44 20 -37 0 -39 -2 -39
-30 0 -19 9 -40 25 -55 21 -22 33 -25 94 -25 64 0 73 3 105 30 47 42 62 87 42
133 -17 43 -41 57 -95 57 -54 0 -71 8 -71 34 0 32 19 46 63 46 30 0 40 -4 44
-20 4 -16 14 -20 49 -20 40 0 44 2 44 24 0 14 -12 38 -26 55 -24 29 -30 31
-97 31 -57 -1 -78 -5 -100 -21z"/>
<path d="M1546 1014 c-19 -18 -20 -28 -6 -55 20 -37 80 -18 80 26 0 42 -44 59
-74 29z"/>
<path d="M3532 1018 c-28 -28 -7 -78 33 -78 27 0 45 18 45 45 0 27 -18 45 -45
45 -12 0 -26 -5 -33 -12z"/>
</g>
</svg>
