<?xml version="1.0" standalone="no"?>
<!DOCTYPE svg PUBLIC "-//W3C//DTD SVG 20010904//EN"
 "http://www.w3.org/TR/2001/REC-SVG-20010904/DTD/svg10.dtd">
<svg version="1.0" xmlns="http://www.w3.org/2000/svg"
 width="512.000000pt" height="512.000000pt" viewBox="0 0 512.000000 512.000000"
 preserveAspectRatio="xMidYMid meet">
<metadata>
Created by potrace 1.11, written by Peter Selinger 2001-2013
</metadata>
<g transform="translate(0.000000,512.000000) scale(0.100000,-0.100000)"
fill="#000000" stroke="none">
<path d="M2320 5029 c-91 -11 -141 -18 -166 -23 -12 -2 -37 -7 -55 -10 -116
-18 -337 -84 -476 -142 -830 -343 -1408 -1096 -1523 -1984 -17 -132 -21 -498
-6 -590 3 -19 8 -53 11 -75 14 -89 17 -103 31 -170 8 -38 17 -78 19 -89 42
-191 181 -517 301 -706 162 -255 434 -549 636 -686 24 -16 45 -32 48 -35 25
-33 336 -203 473 -260 68 -28 290 -103 339 -114 262 -58 364 -70 608 -70 319
0 552 38 829 136 180 64 380 162 536 264 39 25 178 126 185 134 3 3 32 28 65
55 152 124 348 346 470 532 65 97 171 299 217 409 56 136 126 369 142 479 4
21 8 48 11 60 28 125 41 495 23 661 -68 635 -364 1204 -848 1630 -98 87 -336
255 -360 255 -5 0 -10 3 -10 8 0 4 -10 12 -23 18 -12 6 -67 34 -122 61 -215
108 -497 201 -700 229 -16 3 -59 9 -95 16 -78 13 -469 18 -560 7z"/>
</g>
</svg>
