<?xml version="1.0" standalone="no"?>
<!DOCTYPE svg PUBLIC "-//W3C//DTD SVG 20010904//EN"
 "http://www.w3.org/TR/2001/REC-SVG-20010904/DTD/svg10.dtd">
<svg version="1.0" xmlns="http://www.w3.org/2000/svg"
 width="512.000000pt" height="512.000000pt" viewBox="0 0 512.000000 512.000000"
 preserveAspectRatio="xMidYMid meet">
<metadata>
Created by potrace 1.14, written by Peter Selinger 2001-2017
</metadata>
<g transform="translate(0.000000,512.000000) scale(0.100000,-0.100000)"
fill="#000000" stroke="none">
<path d="M1333 4255 l-513 -510 0 -721 0 -720 410 -411 410 -411 -53 -128
c-29 -71 -57 -138 -62 -149 -4 -11 -9 -22 -10 -25 -1 -3 -8 -21 -16 -40 -9
-19 -53 -126 -99 -237 l-84 -203 -108 0 c-150 0 -148 3 -148 -180 0 -127 2
-142 20 -160 19 -19 33 -20 460 -20 427 0 441 1 460 20 18 18 20 33 20 160 0
168 -6 180 -91 180 -37 0 -50 3 -46 13 111 272 231 554 238 561 5 6 187 10
444 10 l435 1 61 -150 c59 -145 81 -198 100 -240 5 -11 24 -58 43 -105 l34
-85 -51 -3 c-81 -5 -87 -17 -87 -184 0 -125 2 -140 20 -158 19 -19 33 -20 460
-20 427 0 441 1 460 20 18 18 20 33 20 160 0 183 2 180 -148 180 l-109 0 -38
98 c-22 53 -42 102 -46 107 -4 6 -23 51 -42 100 -20 50 -72 177 -116 284 l-81
194 410 410 410 410 0 721 0 721 -512 510 -513 510 -715 0 -715 0 -512 -510z"/>
</g>
</svg>
